<mxfile host="app.diagrams.net" modified="2023-05-25T23:44:41.209Z" agent="Mozilla/5.0 (Windows NT 10.0; Win64; x64) AppleWebKit/537.36 (KHTML, like Gecko) Chrome/113.0.0.0 Safari/537.36" etag="vjgGog0jr4IzVMAkhvxm" version="21.2.1" type="onedrive">
  <diagram name="Page-1" id="DrHpGZYPfDhwmPCWdHcx">
    <mxGraphModel dx="1420" dy="774" grid="1" gridSize="10" guides="1" tooltips="1" connect="1" arrows="1" fold="1" page="1" pageScale="1" pageWidth="850" pageHeight="1100" math="0" shadow="0">
      <root>
        <mxCell id="0" />
        <mxCell id="1" parent="0" />
        <mxCell id="56GeBDPx7hmoshWKDtGA-1" value="&lt;b&gt;Factory IO&lt;br&gt;PLC&#39;s&lt;br&gt;&lt;/b&gt;" style="shape=umlFrame;whiteSpace=wrap;html=1;width=120;height=30;boundedLbl=1;verticalAlign=middle;align=left;spacingLeft=5;rounded=0;shadow=0;labelBackgroundColor=none;comic=0;fontFamily=Verdana;fontSize=12;fontColor=default;strokeColor=default;strokeWidth=1;fillColor=default;" vertex="1" parent="1">
          <mxGeometry x="170" y="20" width="255" height="240" as="geometry" />
        </mxCell>
        <mxCell id="56GeBDPx7hmoshWKDtGA-2" value="&lt;b&gt;Real-Time DataBase&lt;br&gt;FireBase&lt;br&gt;&lt;/b&gt;" style="shape=umlFrame;whiteSpace=wrap;html=1;width=80;height=50;boundedLbl=1;verticalAlign=middle;align=left;spacingLeft=5;rounded=0;shadow=0;labelBackgroundColor=none;comic=0;fontFamily=Verdana;fontSize=12;fontColor=default;strokeColor=default;strokeWidth=1;fillColor=default;" vertex="1" parent="1">
          <mxGeometry x="550" y="420" width="260" height="210" as="geometry" />
        </mxCell>
        <mxCell id="56GeBDPx7hmoshWKDtGA-3" value="&lt;b&gt;Dashboard&lt;br&gt;Website&lt;br&gt;FireBase&lt;br&gt;&lt;/b&gt;" style="shape=umlFrame;whiteSpace=wrap;html=1;width=110;height=50;boundedLbl=1;verticalAlign=middle;align=left;spacingLeft=5;rounded=0;shadow=0;labelBackgroundColor=none;comic=0;fontFamily=Verdana;fontSize=12;fontColor=default;strokeColor=default;strokeWidth=1;fillColor=default;" vertex="1" parent="1">
          <mxGeometry x="170" y="400" width="250" height="230" as="geometry" />
        </mxCell>
        <mxCell id="56GeBDPx7hmoshWKDtGA-4" value="&lt;b&gt;Middle-Ware&lt;br&gt;Protocol Node.JS&lt;br&gt;&lt;/b&gt;" style="shape=umlFrame;whiteSpace=wrap;html=1;width=120;height=50;boundedLbl=1;verticalAlign=middle;align=left;spacingLeft=5;rounded=0;shadow=0;labelBackgroundColor=none;comic=0;fontFamily=Verdana;fontSize=12;fontColor=default;strokeColor=default;strokeWidth=1;fillColor=default;" vertex="1" parent="1">
          <mxGeometry x="550" y="20" width="320" height="290" as="geometry" />
        </mxCell>
        <mxCell id="56GeBDPx7hmoshWKDtGA-6" value="Client&lt;br&gt;view" style="html=1;dropTarget=0;align=left;" vertex="1" parent="1">
          <mxGeometry x="230" y="470" width="80" height="50" as="geometry" />
        </mxCell>
        <mxCell id="56GeBDPx7hmoshWKDtGA-7" value="" style="shape=module;jettyWidth=8;jettyHeight=4;" vertex="1" parent="56GeBDPx7hmoshWKDtGA-6">
          <mxGeometry x="1" width="20" height="20" relative="1" as="geometry">
            <mxPoint x="-27" y="7" as="offset" />
          </mxGeometry>
        </mxCell>
        <mxCell id="56GeBDPx7hmoshWKDtGA-8" value="Client&amp;nbsp;&lt;br&gt;input" style="html=1;dropTarget=0;align=left;" vertex="1" parent="1">
          <mxGeometry x="230" y="540" width="80" height="50" as="geometry" />
        </mxCell>
        <mxCell id="56GeBDPx7hmoshWKDtGA-9" value="" style="shape=module;jettyWidth=8;jettyHeight=4;" vertex="1" parent="56GeBDPx7hmoshWKDtGA-8">
          <mxGeometry x="1" width="20" height="20" relative="1" as="geometry">
            <mxPoint x="-27" y="7" as="offset" />
          </mxGeometry>
        </mxCell>
        <mxCell id="56GeBDPx7hmoshWKDtGA-10" value="JSON Data" style="html=1;dropTarget=0;align=left;" vertex="1" parent="1">
          <mxGeometry x="635" y="508.75" width="120" height="40" as="geometry" />
        </mxCell>
        <mxCell id="56GeBDPx7hmoshWKDtGA-11" value="" style="shape=module;jettyWidth=8;jettyHeight=4;" vertex="1" parent="56GeBDPx7hmoshWKDtGA-10">
          <mxGeometry x="1" width="20" height="20" relative="1" as="geometry">
            <mxPoint x="-27" y="7" as="offset" />
          </mxGeometry>
        </mxCell>
        <mxCell id="56GeBDPx7hmoshWKDtGA-13" value="Simulated Machine&lt;br&gt;#1" style="html=1;dropTarget=0;align=left;" vertex="1" parent="1">
          <mxGeometry x="228" y="60" width="160" height="40" as="geometry" />
        </mxCell>
        <mxCell id="56GeBDPx7hmoshWKDtGA-14" value="" style="shape=module;jettyWidth=8;jettyHeight=4;" vertex="1" parent="56GeBDPx7hmoshWKDtGA-13">
          <mxGeometry x="1" width="20" height="20" relative="1" as="geometry">
            <mxPoint x="-27" y="7" as="offset" />
          </mxGeometry>
        </mxCell>
        <mxCell id="56GeBDPx7hmoshWKDtGA-19" value="Simulated Machine&lt;br&gt;#2" style="html=1;dropTarget=0;align=left;" vertex="1" parent="1">
          <mxGeometry x="228" y="120" width="160" height="40" as="geometry" />
        </mxCell>
        <mxCell id="56GeBDPx7hmoshWKDtGA-20" value="" style="shape=module;jettyWidth=8;jettyHeight=4;" vertex="1" parent="56GeBDPx7hmoshWKDtGA-19">
          <mxGeometry x="1" width="20" height="20" relative="1" as="geometry">
            <mxPoint x="-27" y="7" as="offset" />
          </mxGeometry>
        </mxCell>
        <mxCell id="56GeBDPx7hmoshWKDtGA-23" value="&amp;nbsp; &amp;nbsp;Machine Data" style="html=1;dropTarget=0;align=left;" vertex="1" parent="1">
          <mxGeometry x="640" y="90" width="120" height="40" as="geometry" />
        </mxCell>
        <mxCell id="56GeBDPx7hmoshWKDtGA-24" value="" style="shape=module;jettyWidth=8;jettyHeight=4;" vertex="1" parent="56GeBDPx7hmoshWKDtGA-23">
          <mxGeometry x="1" width="20" height="20" relative="1" as="geometry">
            <mxPoint x="-27" y="7" as="offset" />
          </mxGeometry>
        </mxCell>
        <mxCell id="56GeBDPx7hmoshWKDtGA-25" value="&amp;nbsp; &amp;nbsp; &amp;nbsp; JSON Data" style="html=1;dropTarget=0;align=left;" vertex="1" parent="1">
          <mxGeometry x="640" y="225" width="120" height="40" as="geometry" />
        </mxCell>
        <mxCell id="56GeBDPx7hmoshWKDtGA-26" value="" style="shape=module;jettyWidth=8;jettyHeight=4;" vertex="1" parent="56GeBDPx7hmoshWKDtGA-25">
          <mxGeometry x="1" width="20" height="20" relative="1" as="geometry">
            <mxPoint x="-27" y="7" as="offset" />
          </mxGeometry>
        </mxCell>
        <mxCell id="56GeBDPx7hmoshWKDtGA-27" value="" style="rounded=0;whiteSpace=wrap;html=1;" vertex="1" parent="1">
          <mxGeometry x="420" y="480" width="10" height="30" as="geometry" />
        </mxCell>
        <mxCell id="56GeBDPx7hmoshWKDtGA-28" value="" style="rounded=0;whiteSpace=wrap;html=1;" vertex="1" parent="1">
          <mxGeometry x="420" y="550" width="10" height="30" as="geometry" />
        </mxCell>
        <mxCell id="56GeBDPx7hmoshWKDtGA-29" value="" style="rounded=0;whiteSpace=wrap;html=1;" vertex="1" parent="1">
          <mxGeometry x="540" y="550" width="10" height="30" as="geometry" />
        </mxCell>
        <mxCell id="56GeBDPx7hmoshWKDtGA-30" value="" style="rounded=0;whiteSpace=wrap;html=1;" vertex="1" parent="1">
          <mxGeometry x="540" y="480" width="10" height="30" as="geometry" />
        </mxCell>
        <mxCell id="56GeBDPx7hmoshWKDtGA-34" value="" style="rounded=0;whiteSpace=wrap;html=1;" vertex="1" parent="1">
          <mxGeometry x="425" y="95" width="10" height="30" as="geometry" />
        </mxCell>
        <mxCell id="56GeBDPx7hmoshWKDtGA-35" value="" style="rounded=0;whiteSpace=wrap;html=1;" vertex="1" parent="1">
          <mxGeometry x="425" y="200" width="10" height="30" as="geometry" />
        </mxCell>
        <mxCell id="56GeBDPx7hmoshWKDtGA-37" value="" style="rounded=0;whiteSpace=wrap;html=1;" vertex="1" parent="1">
          <mxGeometry x="540" y="95" width="10" height="30" as="geometry" />
        </mxCell>
        <mxCell id="56GeBDPx7hmoshWKDtGA-38" value="" style="rounded=0;whiteSpace=wrap;html=1;" vertex="1" parent="1">
          <mxGeometry x="540" y="200" width="10" height="30" as="geometry" />
        </mxCell>
        <mxCell id="56GeBDPx7hmoshWKDtGA-40" value="" style="rounded=0;whiteSpace=wrap;html=1;rotation=90;" vertex="1" parent="1">
          <mxGeometry x="650" y="300" width="10" height="30" as="geometry" />
        </mxCell>
        <mxCell id="56GeBDPx7hmoshWKDtGA-41" value="" style="rounded=0;whiteSpace=wrap;html=1;" vertex="1" parent="1">
          <mxGeometry x="160" y="550" width="10" height="30" as="geometry" />
        </mxCell>
        <mxCell id="56GeBDPx7hmoshWKDtGA-42" value="" style="verticalLabelPosition=bottom;verticalAlign=top;html=1;shape=mxgraph.flowchart.on-page_reference;" vertex="1" parent="1">
          <mxGeometry x="100" y="548.75" width="30" height="32.5" as="geometry" />
        </mxCell>
        <mxCell id="56GeBDPx7hmoshWKDtGA-43" value="" style="endArrow=none;html=1;rounded=0;exitX=1;exitY=0.5;exitDx=0;exitDy=0;exitPerimeter=0;entryX=0;entryY=0.5;entryDx=0;entryDy=0;" edge="1" parent="1" source="56GeBDPx7hmoshWKDtGA-42" target="56GeBDPx7hmoshWKDtGA-41">
          <mxGeometry width="50" height="50" relative="1" as="geometry">
            <mxPoint x="430" y="410" as="sourcePoint" />
            <mxPoint x="480" y="360" as="targetPoint" />
          </mxGeometry>
        </mxCell>
        <mxCell id="56GeBDPx7hmoshWKDtGA-44" value="" style="endArrow=none;html=1;rounded=0;exitX=1;exitY=0.5;exitDx=0;exitDy=0;entryX=0;entryY=0.5;entryDx=0;entryDy=0;" edge="1" parent="1" source="56GeBDPx7hmoshWKDtGA-41" target="56GeBDPx7hmoshWKDtGA-8">
          <mxGeometry width="50" height="50" relative="1" as="geometry">
            <mxPoint x="280" y="490" as="sourcePoint" />
            <mxPoint x="330" y="440" as="targetPoint" />
          </mxGeometry>
        </mxCell>
        <mxCell id="56GeBDPx7hmoshWKDtGA-45" value="" style="endArrow=none;html=1;rounded=0;exitX=1;exitY=0.5;exitDx=0;exitDy=0;entryX=0;entryY=0.5;entryDx=0;entryDy=0;" edge="1" parent="1" source="56GeBDPx7hmoshWKDtGA-8" target="56GeBDPx7hmoshWKDtGA-28">
          <mxGeometry width="50" height="50" relative="1" as="geometry">
            <mxPoint x="280" y="490" as="sourcePoint" />
            <mxPoint x="330" y="440" as="targetPoint" />
          </mxGeometry>
        </mxCell>
        <mxCell id="56GeBDPx7hmoshWKDtGA-46" value="" style="endArrow=none;html=1;rounded=0;exitX=1;exitY=0.5;exitDx=0;exitDy=0;entryX=0;entryY=0.5;entryDx=0;entryDy=0;" edge="1" parent="1" source="56GeBDPx7hmoshWKDtGA-6" target="56GeBDPx7hmoshWKDtGA-27">
          <mxGeometry width="50" height="50" relative="1" as="geometry">
            <mxPoint x="280" y="490" as="sourcePoint" />
            <mxPoint x="330" y="440" as="targetPoint" />
          </mxGeometry>
        </mxCell>
        <mxCell id="56GeBDPx7hmoshWKDtGA-50" value="" style="shape=providedRequiredInterface;html=1;verticalLabelPosition=bottom;sketch=0;rotation=-180;" vertex="1" parent="1">
          <mxGeometry x="483" y="485" width="20" height="20" as="geometry" />
        </mxCell>
        <mxCell id="56GeBDPx7hmoshWKDtGA-51" value="" style="endArrow=none;html=1;rounded=0;entryX=1;entryY=0.5;entryDx=0;entryDy=0;entryPerimeter=0;exitX=1;exitY=0.5;exitDx=0;exitDy=0;" edge="1" parent="1" source="56GeBDPx7hmoshWKDtGA-27" target="56GeBDPx7hmoshWKDtGA-50">
          <mxGeometry width="50" height="50" relative="1" as="geometry">
            <mxPoint x="280" y="570" as="sourcePoint" />
            <mxPoint x="330" y="520" as="targetPoint" />
          </mxGeometry>
        </mxCell>
        <mxCell id="56GeBDPx7hmoshWKDtGA-52" value="" style="endArrow=none;html=1;rounded=0;entryX=0;entryY=0.5;entryDx=0;entryDy=0;exitX=0;exitY=0.5;exitDx=0;exitDy=0;exitPerimeter=0;" edge="1" parent="1" source="56GeBDPx7hmoshWKDtGA-50" target="56GeBDPx7hmoshWKDtGA-30">
          <mxGeometry width="50" height="50" relative="1" as="geometry">
            <mxPoint x="280" y="570" as="sourcePoint" />
            <mxPoint x="330" y="520" as="targetPoint" />
          </mxGeometry>
        </mxCell>
        <mxCell id="56GeBDPx7hmoshWKDtGA-54" value="" style="shape=providedRequiredInterface;html=1;verticalLabelPosition=bottom;sketch=0;" vertex="1" parent="1">
          <mxGeometry x="483" y="555" width="20" height="20" as="geometry" />
        </mxCell>
        <mxCell id="56GeBDPx7hmoshWKDtGA-55" value="" style="endArrow=none;html=1;rounded=0;entryX=0;entryY=0.5;entryDx=0;entryDy=0;entryPerimeter=0;exitX=1;exitY=0.5;exitDx=0;exitDy=0;" edge="1" parent="1" source="56GeBDPx7hmoshWKDtGA-28" target="56GeBDPx7hmoshWKDtGA-54">
          <mxGeometry width="50" height="50" relative="1" as="geometry">
            <mxPoint x="280" y="570" as="sourcePoint" />
            <mxPoint x="330" y="520" as="targetPoint" />
          </mxGeometry>
        </mxCell>
        <mxCell id="56GeBDPx7hmoshWKDtGA-56" value="" style="endArrow=none;html=1;rounded=0;entryX=0;entryY=0.5;entryDx=0;entryDy=0;exitX=1;exitY=0.5;exitDx=0;exitDy=0;exitPerimeter=0;" edge="1" parent="1" source="56GeBDPx7hmoshWKDtGA-54" target="56GeBDPx7hmoshWKDtGA-29">
          <mxGeometry width="50" height="50" relative="1" as="geometry">
            <mxPoint x="280" y="570" as="sourcePoint" />
            <mxPoint x="330" y="520" as="targetPoint" />
          </mxGeometry>
        </mxCell>
        <mxCell id="56GeBDPx7hmoshWKDtGA-57" value="" style="rounded=0;whiteSpace=wrap;html=1;rotation=90;" vertex="1" parent="1">
          <mxGeometry x="740" y="300" width="10" height="30" as="geometry" />
        </mxCell>
        <mxCell id="56GeBDPx7hmoshWKDtGA-61" value="" style="rounded=0;whiteSpace=wrap;html=1;rotation=90;" vertex="1" parent="1">
          <mxGeometry x="650" y="400" width="10" height="30" as="geometry" />
        </mxCell>
        <mxCell id="56GeBDPx7hmoshWKDtGA-63" value="" style="rounded=0;whiteSpace=wrap;html=1;rotation=90;" vertex="1" parent="1">
          <mxGeometry x="740" y="400" width="10" height="30" as="geometry" />
        </mxCell>
        <mxCell id="56GeBDPx7hmoshWKDtGA-66" value="" style="shape=providedRequiredInterface;html=1;verticalLabelPosition=bottom;sketch=0;rotation=90;" vertex="1" parent="1">
          <mxGeometry x="645" y="350" width="20" height="20" as="geometry" />
        </mxCell>
        <mxCell id="56GeBDPx7hmoshWKDtGA-67" value="" style="shape=providedRequiredInterface;html=1;verticalLabelPosition=bottom;sketch=0;rotation=-90;" vertex="1" parent="1">
          <mxGeometry x="735" y="350" width="20" height="20" as="geometry" />
        </mxCell>
        <mxCell id="56GeBDPx7hmoshWKDtGA-68" value="" style="endArrow=none;html=1;rounded=0;exitX=0;exitY=0.5;exitDx=0;exitDy=0;entryX=1;entryY=0.5;entryDx=0;entryDy=0;entryPerimeter=0;" edge="1" parent="1" source="56GeBDPx7hmoshWKDtGA-61" target="56GeBDPx7hmoshWKDtGA-66">
          <mxGeometry width="50" height="50" relative="1" as="geometry">
            <mxPoint x="420" y="370" as="sourcePoint" />
            <mxPoint x="470" y="320" as="targetPoint" />
          </mxGeometry>
        </mxCell>
        <mxCell id="56GeBDPx7hmoshWKDtGA-70" value="" style="endArrow=none;html=1;rounded=0;entryX=0;entryY=0.5;entryDx=0;entryDy=0;entryPerimeter=0;exitX=0;exitY=0.5;exitDx=0;exitDy=0;" edge="1" parent="1" source="56GeBDPx7hmoshWKDtGA-63" target="56GeBDPx7hmoshWKDtGA-67">
          <mxGeometry width="50" height="50" relative="1" as="geometry">
            <mxPoint x="420" y="370" as="sourcePoint" />
            <mxPoint x="470" y="320" as="targetPoint" />
          </mxGeometry>
        </mxCell>
        <mxCell id="56GeBDPx7hmoshWKDtGA-71" value="" style="endArrow=none;html=1;rounded=0;entryX=1;entryY=0.5;entryDx=0;entryDy=0;exitX=0;exitY=0.5;exitDx=0;exitDy=0;exitPerimeter=0;" edge="1" parent="1" source="56GeBDPx7hmoshWKDtGA-66" target="56GeBDPx7hmoshWKDtGA-40">
          <mxGeometry width="50" height="50" relative="1" as="geometry">
            <mxPoint x="420" y="370" as="sourcePoint" />
            <mxPoint x="470" y="320" as="targetPoint" />
          </mxGeometry>
        </mxCell>
        <mxCell id="56GeBDPx7hmoshWKDtGA-72" value="" style="endArrow=none;html=1;rounded=0;entryX=1;entryY=0.5;entryDx=0;entryDy=0;exitX=1;exitY=0.5;exitDx=0;exitDy=0;exitPerimeter=0;" edge="1" parent="1" source="56GeBDPx7hmoshWKDtGA-67" target="56GeBDPx7hmoshWKDtGA-57">
          <mxGeometry width="50" height="50" relative="1" as="geometry">
            <mxPoint x="420" y="370" as="sourcePoint" />
            <mxPoint x="470" y="320" as="targetPoint" />
          </mxGeometry>
        </mxCell>
        <mxCell id="56GeBDPx7hmoshWKDtGA-73" value="" style="shape=providedRequiredInterface;html=1;verticalLabelPosition=bottom;sketch=0;" vertex="1" parent="1">
          <mxGeometry x="480" y="100" width="20" height="20" as="geometry" />
        </mxCell>
        <mxCell id="56GeBDPx7hmoshWKDtGA-76" value="" style="shape=providedRequiredInterface;html=1;verticalLabelPosition=bottom;sketch=0;rotation=-180;" vertex="1" parent="1">
          <mxGeometry x="480" y="205" width="20" height="20" as="geometry" />
        </mxCell>
        <mxCell id="56GeBDPx7hmoshWKDtGA-77" value="" style="endArrow=none;html=1;rounded=0;entryX=1;entryY=0.5;entryDx=0;entryDy=0;entryPerimeter=0;exitX=1;exitY=0.5;exitDx=0;exitDy=0;" edge="1" parent="1" source="56GeBDPx7hmoshWKDtGA-35" target="56GeBDPx7hmoshWKDtGA-76">
          <mxGeometry width="50" height="50" relative="1" as="geometry">
            <mxPoint x="340" y="340" as="sourcePoint" />
            <mxPoint x="390" y="290" as="targetPoint" />
          </mxGeometry>
        </mxCell>
        <mxCell id="56GeBDPx7hmoshWKDtGA-78" value="" style="endArrow=none;html=1;rounded=0;entryX=0;entryY=0.5;entryDx=0;entryDy=0;exitX=0;exitY=0.5;exitDx=0;exitDy=0;exitPerimeter=0;" edge="1" parent="1" source="56GeBDPx7hmoshWKDtGA-76" target="56GeBDPx7hmoshWKDtGA-38">
          <mxGeometry width="50" height="50" relative="1" as="geometry">
            <mxPoint x="340" y="340" as="sourcePoint" />
            <mxPoint x="390" y="290" as="targetPoint" />
          </mxGeometry>
        </mxCell>
        <mxCell id="56GeBDPx7hmoshWKDtGA-79" value="" style="endArrow=none;html=1;rounded=0;entryX=0;entryY=0.5;entryDx=0;entryDy=0;entryPerimeter=0;exitX=1;exitY=0.5;exitDx=0;exitDy=0;" edge="1" parent="1" source="56GeBDPx7hmoshWKDtGA-34" target="56GeBDPx7hmoshWKDtGA-73">
          <mxGeometry width="50" height="50" relative="1" as="geometry">
            <mxPoint x="340" y="340" as="sourcePoint" />
            <mxPoint x="390" y="290" as="targetPoint" />
          </mxGeometry>
        </mxCell>
        <mxCell id="56GeBDPx7hmoshWKDtGA-80" value="" style="endArrow=none;html=1;rounded=0;entryX=0;entryY=0.5;entryDx=0;entryDy=0;exitX=1;exitY=0.5;exitDx=0;exitDy=0;exitPerimeter=0;" edge="1" parent="1" source="56GeBDPx7hmoshWKDtGA-73" target="56GeBDPx7hmoshWKDtGA-37">
          <mxGeometry width="50" height="50" relative="1" as="geometry">
            <mxPoint x="340" y="340" as="sourcePoint" />
            <mxPoint x="390" y="290" as="targetPoint" />
          </mxGeometry>
        </mxCell>
        <mxCell id="56GeBDPx7hmoshWKDtGA-86" value="" style="endArrow=none;html=1;rounded=0;exitX=0;exitY=0.5;exitDx=0;exitDy=0;entryX=0;entryY=0.5;entryDx=0;entryDy=0;" edge="1" parent="1" source="56GeBDPx7hmoshWKDtGA-13" target="56GeBDPx7hmoshWKDtGA-35">
          <mxGeometry width="50" height="50" relative="1" as="geometry">
            <mxPoint x="280" y="250" as="sourcePoint" />
            <mxPoint x="330" y="200" as="targetPoint" />
            <Array as="points">
              <mxPoint x="190" y="80" />
              <mxPoint x="190" y="140" />
              <mxPoint x="190" y="215" />
            </Array>
          </mxGeometry>
        </mxCell>
        <mxCell id="56GeBDPx7hmoshWKDtGA-87" value="" style="endArrow=none;html=1;rounded=0;entryX=0;entryY=0.5;entryDx=0;entryDy=0;" edge="1" parent="1" target="56GeBDPx7hmoshWKDtGA-19">
          <mxGeometry width="50" height="50" relative="1" as="geometry">
            <mxPoint x="190" y="140" as="sourcePoint" />
            <mxPoint x="330" y="200" as="targetPoint" />
          </mxGeometry>
        </mxCell>
        <mxCell id="56GeBDPx7hmoshWKDtGA-89" value="&lt;font style=&quot;font-size: 10px;&quot;&gt;Sends Data&lt;/font&gt;" style="text;html=1;strokeColor=none;fillColor=none;align=center;verticalAlign=middle;whiteSpace=wrap;rounded=0;" vertex="1" parent="1">
          <mxGeometry x="455.5" y="70" width="60" height="30" as="geometry" />
        </mxCell>
        <mxCell id="56GeBDPx7hmoshWKDtGA-90" value="&lt;font style=&quot;font-size: 10px;&quot;&gt;Receives Data&lt;/font&gt;" style="text;html=1;strokeColor=none;fillColor=none;align=center;verticalAlign=middle;whiteSpace=wrap;rounded=0;" vertex="1" parent="1">
          <mxGeometry x="455.5" y="175" width="75" height="30" as="geometry" />
        </mxCell>
        <mxCell id="56GeBDPx7hmoshWKDtGA-91" value="" style="endArrow=none;html=1;rounded=0;entryX=0;entryY=0.5;entryDx=0;entryDy=0;exitX=1;exitY=0.5;exitDx=0;exitDy=0;" edge="1" parent="1" source="56GeBDPx7hmoshWKDtGA-37" target="56GeBDPx7hmoshWKDtGA-23">
          <mxGeometry width="50" height="50" relative="1" as="geometry">
            <mxPoint x="280" y="240" as="sourcePoint" />
            <mxPoint x="330" y="190" as="targetPoint" />
          </mxGeometry>
        </mxCell>
        <mxCell id="56GeBDPx7hmoshWKDtGA-92" value="" style="endArrow=none;html=1;rounded=0;entryX=1;entryY=0.5;entryDx=0;entryDy=0;" edge="1" parent="1" target="56GeBDPx7hmoshWKDtGA-38">
          <mxGeometry width="50" height="50" relative="1" as="geometry">
            <mxPoint x="580" y="110" as="sourcePoint" />
            <mxPoint x="330" y="190" as="targetPoint" />
            <Array as="points">
              <mxPoint x="580" y="215" />
            </Array>
          </mxGeometry>
        </mxCell>
        <mxCell id="56GeBDPx7hmoshWKDtGA-93" value="" style="rounded=0;whiteSpace=wrap;html=1;rotation=90;" vertex="1" parent="1">
          <mxGeometry x="650" y="120" width="10" height="30" as="geometry" />
        </mxCell>
        <mxCell id="56GeBDPx7hmoshWKDtGA-94" value="" style="rounded=0;whiteSpace=wrap;html=1;rotation=90;" vertex="1" parent="1">
          <mxGeometry x="740" y="120" width="10" height="30" as="geometry" />
        </mxCell>
        <mxCell id="56GeBDPx7hmoshWKDtGA-95" value="" style="rounded=0;whiteSpace=wrap;html=1;rotation=90;" vertex="1" parent="1">
          <mxGeometry x="650" y="205" width="10" height="30" as="geometry" />
        </mxCell>
        <mxCell id="56GeBDPx7hmoshWKDtGA-96" value="" style="rounded=0;whiteSpace=wrap;html=1;rotation=90;" vertex="1" parent="1">
          <mxGeometry x="740" y="205" width="10" height="30" as="geometry" />
        </mxCell>
        <mxCell id="56GeBDPx7hmoshWKDtGA-103" value="" style="shape=providedRequiredInterface;html=1;verticalLabelPosition=bottom;sketch=0;rotation=-90;" vertex="1" parent="1">
          <mxGeometry x="645" y="170" width="20" height="20" as="geometry" />
        </mxCell>
        <mxCell id="56GeBDPx7hmoshWKDtGA-105" value="" style="shape=providedRequiredInterface;html=1;verticalLabelPosition=bottom;sketch=0;rotation=90;" vertex="1" parent="1">
          <mxGeometry x="735" y="170" width="20" height="20" as="geometry" />
        </mxCell>
        <mxCell id="56GeBDPx7hmoshWKDtGA-106" value="" style="endArrow=none;html=1;rounded=0;entryX=1;entryY=0.5;entryDx=0;entryDy=0;entryPerimeter=0;exitX=1;exitY=0.5;exitDx=0;exitDy=0;" edge="1" parent="1" source="56GeBDPx7hmoshWKDtGA-93" target="56GeBDPx7hmoshWKDtGA-103">
          <mxGeometry width="50" height="50" relative="1" as="geometry">
            <mxPoint x="280" y="240" as="sourcePoint" />
            <mxPoint x="330" y="190" as="targetPoint" />
          </mxGeometry>
        </mxCell>
        <mxCell id="56GeBDPx7hmoshWKDtGA-107" value="" style="endArrow=none;html=1;rounded=0;entryX=1;entryY=0.5;entryDx=0;entryDy=0;" edge="1" parent="1" source="56GeBDPx7hmoshWKDtGA-105" target="56GeBDPx7hmoshWKDtGA-94">
          <mxGeometry width="50" height="50" relative="1" as="geometry">
            <mxPoint x="280" y="240" as="sourcePoint" />
            <mxPoint x="330" y="190" as="targetPoint" />
          </mxGeometry>
        </mxCell>
        <mxCell id="56GeBDPx7hmoshWKDtGA-109" value="" style="endArrow=none;html=1;rounded=0;entryX=0;entryY=0.5;entryDx=0;entryDy=0;exitX=0;exitY=0.5;exitDx=0;exitDy=0;exitPerimeter=0;" edge="1" parent="1" source="56GeBDPx7hmoshWKDtGA-103" target="56GeBDPx7hmoshWKDtGA-95">
          <mxGeometry width="50" height="50" relative="1" as="geometry">
            <mxPoint x="280" y="240" as="sourcePoint" />
            <mxPoint x="330" y="190" as="targetPoint" />
          </mxGeometry>
        </mxCell>
        <mxCell id="56GeBDPx7hmoshWKDtGA-110" value="" style="endArrow=none;html=1;rounded=0;entryX=1;entryY=0.5;entryDx=0;entryDy=0;entryPerimeter=0;exitX=0;exitY=0.5;exitDx=0;exitDy=0;" edge="1" parent="1" source="56GeBDPx7hmoshWKDtGA-96" target="56GeBDPx7hmoshWKDtGA-105">
          <mxGeometry width="50" height="50" relative="1" as="geometry">
            <mxPoint x="280" y="240" as="sourcePoint" />
            <mxPoint x="330" y="190" as="targetPoint" />
          </mxGeometry>
        </mxCell>
        <mxCell id="56GeBDPx7hmoshWKDtGA-118" value="&lt;font style=&quot;font-size: 9px;&quot;&gt;Converts to machine data&lt;/font&gt;" style="text;html=1;strokeColor=none;fillColor=none;align=center;verticalAlign=middle;whiteSpace=wrap;rounded=0;" vertex="1" parent="1">
          <mxGeometry x="610" y="170" width="40" height="30" as="geometry" />
        </mxCell>
        <mxCell id="56GeBDPx7hmoshWKDtGA-119" value="&lt;font style=&quot;font-size: 9px;&quot;&gt;Converts to JSON Data&lt;/font&gt;" style="text;html=1;strokeColor=none;fillColor=none;align=center;verticalAlign=middle;whiteSpace=wrap;rounded=0;" vertex="1" parent="1">
          <mxGeometry x="760" y="157.5" width="35" height="45" as="geometry" />
        </mxCell>
        <mxCell id="56GeBDPx7hmoshWKDtGA-122" value="" style="endArrow=none;html=1;rounded=0;exitX=1;exitY=0.5;exitDx=0;exitDy=0;entryX=0.5;entryY=0;entryDx=0;entryDy=0;" edge="1" parent="1" source="56GeBDPx7hmoshWKDtGA-61" target="56GeBDPx7hmoshWKDtGA-10">
          <mxGeometry width="50" height="50" relative="1" as="geometry">
            <mxPoint x="370" y="430" as="sourcePoint" />
            <mxPoint x="700" y="510" as="targetPoint" />
            <Array as="points">
              <mxPoint x="655" y="460" />
              <mxPoint x="695" y="460" />
            </Array>
          </mxGeometry>
        </mxCell>
        <mxCell id="56GeBDPx7hmoshWKDtGA-123" value="" style="endArrow=none;html=1;rounded=0;exitX=1;exitY=0.5;exitDx=0;exitDy=0;" edge="1" parent="1" source="56GeBDPx7hmoshWKDtGA-63">
          <mxGeometry width="50" height="50" relative="1" as="geometry">
            <mxPoint x="370" y="430" as="sourcePoint" />
            <mxPoint x="700" y="460" as="targetPoint" />
            <Array as="points">
              <mxPoint x="745" y="460" />
              <mxPoint x="700" y="460" />
              <mxPoint x="690" y="460" />
            </Array>
          </mxGeometry>
        </mxCell>
        <mxCell id="56GeBDPx7hmoshWKDtGA-124" value="" style="endArrow=none;html=1;rounded=0;entryX=0;entryY=0.5;entryDx=0;entryDy=0;exitX=1;exitY=0.5;exitDx=0;exitDy=0;" edge="1" parent="1" source="56GeBDPx7hmoshWKDtGA-30" target="56GeBDPx7hmoshWKDtGA-10">
          <mxGeometry width="50" height="50" relative="1" as="geometry">
            <mxPoint x="390" y="330" as="sourcePoint" />
            <mxPoint x="440" y="280" as="targetPoint" />
            <Array as="points">
              <mxPoint x="600" y="495" />
              <mxPoint x="600" y="529" />
            </Array>
          </mxGeometry>
        </mxCell>
        <mxCell id="56GeBDPx7hmoshWKDtGA-125" value="" style="endArrow=none;html=1;rounded=0;entryX=0;entryY=0.5;entryDx=0;entryDy=0;exitX=1;exitY=0.5;exitDx=0;exitDy=0;" edge="1" parent="1" source="56GeBDPx7hmoshWKDtGA-29" target="56GeBDPx7hmoshWKDtGA-10">
          <mxGeometry width="50" height="50" relative="1" as="geometry">
            <mxPoint x="400" y="520" as="sourcePoint" />
            <mxPoint x="450" y="470" as="targetPoint" />
            <Array as="points">
              <mxPoint x="600" y="565" />
              <mxPoint x="600" y="529" />
            </Array>
          </mxGeometry>
        </mxCell>
        <mxCell id="56GeBDPx7hmoshWKDtGA-126" value="&lt;font style=&quot;font-size: 10px;&quot;&gt;Sends Data&lt;/font&gt;" style="text;html=1;strokeColor=none;fillColor=none;align=center;verticalAlign=middle;whiteSpace=wrap;rounded=0;" vertex="1" parent="1">
          <mxGeometry x="610" y="340" width="40" height="40" as="geometry" />
        </mxCell>
        <mxCell id="56GeBDPx7hmoshWKDtGA-127" value="&lt;font style=&quot;font-size: 10px;&quot;&gt;Receives Data&lt;/font&gt;" style="text;html=1;strokeColor=none;fillColor=none;align=center;verticalAlign=middle;whiteSpace=wrap;rounded=0;" vertex="1" parent="1">
          <mxGeometry x="760" y="342.5" width="35" height="35" as="geometry" />
        </mxCell>
        <mxCell id="56GeBDPx7hmoshWKDtGA-128" value="&lt;font style=&quot;font-size: 10px;&quot;&gt;Receives Data&lt;/font&gt;" style="text;html=1;strokeColor=none;fillColor=none;align=center;verticalAlign=middle;whiteSpace=wrap;rounded=0;" vertex="1" parent="1">
          <mxGeometry x="452.5" y="460" width="75" height="30" as="geometry" />
        </mxCell>
        <mxCell id="56GeBDPx7hmoshWKDtGA-129" value="&lt;font style=&quot;font-size: 10px;&quot;&gt;Sends Data&lt;/font&gt;" style="text;html=1;strokeColor=none;fillColor=none;align=center;verticalAlign=middle;whiteSpace=wrap;rounded=0;" vertex="1" parent="1">
          <mxGeometry x="463" y="575" width="60" height="30" as="geometry" />
        </mxCell>
        <mxCell id="56GeBDPx7hmoshWKDtGA-130" value="&lt;span style=&quot;font-size: 10px;&quot;&gt;Input&lt;/span&gt;" style="text;html=1;strokeColor=none;fillColor=none;align=center;verticalAlign=middle;whiteSpace=wrap;rounded=0;" vertex="1" parent="1">
          <mxGeometry x="77.5" y="525" width="75" height="30" as="geometry" />
        </mxCell>
        <mxCell id="56GeBDPx7hmoshWKDtGA-131" value="" style="endArrow=none;html=1;rounded=0;entryX=0.5;entryY=1;entryDx=0;entryDy=0;exitX=0;exitY=0.5;exitDx=0;exitDy=0;" edge="1" parent="1" source="56GeBDPx7hmoshWKDtGA-40" target="56GeBDPx7hmoshWKDtGA-25">
          <mxGeometry width="50" height="50" relative="1" as="geometry">
            <mxPoint x="380" y="340" as="sourcePoint" />
            <mxPoint x="430" y="290" as="targetPoint" />
            <Array as="points">
              <mxPoint x="655" y="290" />
              <mxPoint x="700" y="290" />
            </Array>
          </mxGeometry>
        </mxCell>
        <mxCell id="56GeBDPx7hmoshWKDtGA-132" value="" style="endArrow=none;html=1;rounded=0;entryX=0;entryY=0.5;entryDx=0;entryDy=0;exitX=0.5;exitY=1;exitDx=0;exitDy=0;" edge="1" parent="1" source="56GeBDPx7hmoshWKDtGA-25" target="56GeBDPx7hmoshWKDtGA-57">
          <mxGeometry width="50" height="50" relative="1" as="geometry">
            <mxPoint x="410" y="370" as="sourcePoint" />
            <mxPoint x="460" y="320" as="targetPoint" />
            <Array as="points">
              <mxPoint x="700" y="290" />
              <mxPoint x="745" y="290" />
            </Array>
          </mxGeometry>
        </mxCell>
        <mxCell id="56GeBDPx7hmoshWKDtGA-133" value="&lt;b&gt;Physical PLC&#39;s&lt;br&gt;&lt;/b&gt;" style="shape=umlFrame;whiteSpace=wrap;html=1;width=120;height=30;boundedLbl=1;verticalAlign=middle;align=left;spacingLeft=5;rounded=0;shadow=0;labelBackgroundColor=none;comic=0;fontFamily=Verdana;fontSize=12;fontColor=default;strokeColor=default;strokeWidth=1;fillColor=default;" vertex="1" parent="1">
          <mxGeometry x="990" y="20" width="230" height="230" as="geometry" />
        </mxCell>
        <mxCell id="56GeBDPx7hmoshWKDtGA-134" value="PLC&lt;br&gt;#1" style="html=1;dropTarget=0;align=left;" vertex="1" parent="1">
          <mxGeometry x="1110" y="70" width="80" height="40" as="geometry" />
        </mxCell>
        <mxCell id="56GeBDPx7hmoshWKDtGA-135" value="" style="shape=module;jettyWidth=8;jettyHeight=4;" vertex="1" parent="56GeBDPx7hmoshWKDtGA-134">
          <mxGeometry x="1" width="20" height="20" relative="1" as="geometry">
            <mxPoint x="-27" y="7" as="offset" />
          </mxGeometry>
        </mxCell>
        <mxCell id="56GeBDPx7hmoshWKDtGA-136" value="PLC&lt;br&gt;#1" style="html=1;dropTarget=0;align=left;" vertex="1" parent="1">
          <mxGeometry x="1110" y="130" width="80" height="40" as="geometry" />
        </mxCell>
        <mxCell id="56GeBDPx7hmoshWKDtGA-137" value="" style="shape=module;jettyWidth=8;jettyHeight=4;" vertex="1" parent="56GeBDPx7hmoshWKDtGA-136">
          <mxGeometry x="1" width="20" height="20" relative="1" as="geometry">
            <mxPoint x="-27" y="7" as="offset" />
          </mxGeometry>
        </mxCell>
        <mxCell id="56GeBDPx7hmoshWKDtGA-138" value="" style="rounded=0;whiteSpace=wrap;html=1;" vertex="1" parent="1">
          <mxGeometry x="870" y="95" width="10" height="30" as="geometry" />
        </mxCell>
        <mxCell id="56GeBDPx7hmoshWKDtGA-139" value="" style="rounded=0;whiteSpace=wrap;html=1;" vertex="1" parent="1">
          <mxGeometry x="870" y="200" width="10" height="30" as="geometry" />
        </mxCell>
        <mxCell id="56GeBDPx7hmoshWKDtGA-140" value="" style="shape=providedRequiredInterface;html=1;verticalLabelPosition=bottom;sketch=0;rotation=-180;" vertex="1" parent="1">
          <mxGeometry x="920" y="100" width="20" height="20" as="geometry" />
        </mxCell>
        <mxCell id="56GeBDPx7hmoshWKDtGA-141" value="" style="rounded=0;whiteSpace=wrap;html=1;" vertex="1" parent="1">
          <mxGeometry x="980" y="95" width="10" height="30" as="geometry" />
        </mxCell>
        <mxCell id="56GeBDPx7hmoshWKDtGA-142" value="" style="rounded=0;whiteSpace=wrap;html=1;" vertex="1" parent="1">
          <mxGeometry x="980" y="200" width="10" height="30" as="geometry" />
        </mxCell>
        <mxCell id="56GeBDPx7hmoshWKDtGA-143" value="" style="shape=providedRequiredInterface;html=1;verticalLabelPosition=bottom;sketch=0;rotation=0;" vertex="1" parent="1">
          <mxGeometry x="920" y="205" width="20" height="20" as="geometry" />
        </mxCell>
        <mxCell id="56GeBDPx7hmoshWKDtGA-144" value="" style="endArrow=none;html=1;rounded=0;entryX=0;entryY=0.5;entryDx=0;entryDy=0;entryPerimeter=0;exitX=1;exitY=0.5;exitDx=0;exitDy=0;" edge="1" parent="1" source="56GeBDPx7hmoshWKDtGA-139" target="56GeBDPx7hmoshWKDtGA-143">
          <mxGeometry width="50" height="50" relative="1" as="geometry">
            <mxPoint x="830" y="310" as="sourcePoint" />
            <mxPoint x="880" y="260" as="targetPoint" />
          </mxGeometry>
        </mxCell>
        <mxCell id="56GeBDPx7hmoshWKDtGA-145" value="" style="endArrow=none;html=1;rounded=0;entryX=0;entryY=0.5;entryDx=0;entryDy=0;exitX=1;exitY=0.5;exitDx=0;exitDy=0;exitPerimeter=0;" edge="1" parent="1" source="56GeBDPx7hmoshWKDtGA-143" target="56GeBDPx7hmoshWKDtGA-142">
          <mxGeometry width="50" height="50" relative="1" as="geometry">
            <mxPoint x="830" y="310" as="sourcePoint" />
            <mxPoint x="880" y="260" as="targetPoint" />
          </mxGeometry>
        </mxCell>
        <mxCell id="56GeBDPx7hmoshWKDtGA-146" value="" style="endArrow=none;html=1;rounded=0;entryX=0;entryY=0.5;entryDx=0;entryDy=0;exitX=0;exitY=0.5;exitDx=0;exitDy=0;exitPerimeter=0;" edge="1" parent="1" source="56GeBDPx7hmoshWKDtGA-140" target="56GeBDPx7hmoshWKDtGA-141">
          <mxGeometry width="50" height="50" relative="1" as="geometry">
            <mxPoint x="830" y="310" as="sourcePoint" />
            <mxPoint x="880" y="260" as="targetPoint" />
          </mxGeometry>
        </mxCell>
        <mxCell id="56GeBDPx7hmoshWKDtGA-147" value="" style="endArrow=none;html=1;rounded=0;entryX=1;entryY=0.5;entryDx=0;entryDy=0;entryPerimeter=0;exitX=1;exitY=0.5;exitDx=0;exitDy=0;" edge="1" parent="1" source="56GeBDPx7hmoshWKDtGA-138" target="56GeBDPx7hmoshWKDtGA-140">
          <mxGeometry width="50" height="50" relative="1" as="geometry">
            <mxPoint x="830" y="310" as="sourcePoint" />
            <mxPoint x="880" y="260" as="targetPoint" />
          </mxGeometry>
        </mxCell>
        <mxCell id="56GeBDPx7hmoshWKDtGA-148" value="&lt;font style=&quot;font-size: 10px;&quot;&gt;Sends Data&lt;/font&gt;" style="text;html=1;strokeColor=none;fillColor=none;align=center;verticalAlign=middle;whiteSpace=wrap;rounded=0;" vertex="1" parent="1">
          <mxGeometry x="900" y="75" width="60" height="30" as="geometry" />
        </mxCell>
        <mxCell id="56GeBDPx7hmoshWKDtGA-149" value="&lt;font style=&quot;font-size: 10px;&quot;&gt;Receives Data&lt;/font&gt;" style="text;html=1;strokeColor=none;fillColor=none;align=center;verticalAlign=middle;whiteSpace=wrap;rounded=0;" vertex="1" parent="1">
          <mxGeometry x="892.5" y="175" width="75" height="30" as="geometry" />
        </mxCell>
        <mxCell id="56GeBDPx7hmoshWKDtGA-150" value="" style="endArrow=none;html=1;rounded=0;entryX=1;entryY=0.5;entryDx=0;entryDy=0;exitX=0;exitY=0.5;exitDx=0;exitDy=0;" edge="1" parent="1" source="56GeBDPx7hmoshWKDtGA-134" target="56GeBDPx7hmoshWKDtGA-141">
          <mxGeometry width="50" height="50" relative="1" as="geometry">
            <mxPoint x="830" y="310" as="sourcePoint" />
            <mxPoint x="880" y="260" as="targetPoint" />
            <Array as="points">
              <mxPoint x="1070" y="90" />
              <mxPoint x="1070" y="110" />
            </Array>
          </mxGeometry>
        </mxCell>
        <mxCell id="56GeBDPx7hmoshWKDtGA-151" value="" style="endArrow=none;html=1;rounded=0;entryX=1;entryY=0.5;entryDx=0;entryDy=0;exitX=0;exitY=0.5;exitDx=0;exitDy=0;" edge="1" parent="1" source="56GeBDPx7hmoshWKDtGA-136" target="56GeBDPx7hmoshWKDtGA-141">
          <mxGeometry width="50" height="50" relative="1" as="geometry">
            <mxPoint x="830" y="310" as="sourcePoint" />
            <mxPoint x="880" y="260" as="targetPoint" />
            <Array as="points">
              <mxPoint x="1070" y="150" />
              <mxPoint x="1070" y="110" />
            </Array>
          </mxGeometry>
        </mxCell>
        <mxCell id="56GeBDPx7hmoshWKDtGA-152" value="" style="endArrow=none;html=1;rounded=0;entryX=1;entryY=0.5;entryDx=0;entryDy=0;exitX=1;exitY=0.5;exitDx=0;exitDy=0;" edge="1" parent="1" source="56GeBDPx7hmoshWKDtGA-136" target="56GeBDPx7hmoshWKDtGA-142">
          <mxGeometry width="50" height="50" relative="1" as="geometry">
            <mxPoint x="830" y="310" as="sourcePoint" />
            <mxPoint x="880" y="260" as="targetPoint" />
            <Array as="points">
              <mxPoint x="1210" y="150" />
              <mxPoint x="1210" y="215" />
            </Array>
          </mxGeometry>
        </mxCell>
        <mxCell id="56GeBDPx7hmoshWKDtGA-153" value="" style="endArrow=none;html=1;rounded=0;entryX=1;entryY=0.5;entryDx=0;entryDy=0;exitX=1;exitY=0.5;exitDx=0;exitDy=0;" edge="1" parent="1" source="56GeBDPx7hmoshWKDtGA-134" target="56GeBDPx7hmoshWKDtGA-142">
          <mxGeometry width="50" height="50" relative="1" as="geometry">
            <mxPoint x="830" y="310" as="sourcePoint" />
            <mxPoint x="880" y="260" as="targetPoint" />
            <Array as="points">
              <mxPoint x="1210" y="90" />
              <mxPoint x="1210" y="215" />
            </Array>
          </mxGeometry>
        </mxCell>
      </root>
    </mxGraphModel>
  </diagram>
</mxfile>
